<svg aria-hidden="true" style="position: absolute; width: 0; height: 0; overflow: hidden;" version="1.1" xmlns="http://www.w3.org/2000/svg" xmlns:xlink="http://www.w3.org/1999/xlink">
<defs>
<symbol id="icon-arrowDown" viewBox="0 0 55 32">
<path stroke-linejoin="round" stroke-linecap="round" stroke-miterlimit="10" stroke-width="9.1429" d="M50.286 4.571l-22.857 22.857-22.857-22.857"></path>
</symbol>
<symbol id="icon-facebook" viewBox="0 0 16 32">
<path fill="#fff" style="fill: var(--color1, #fff)" d="M9.87 9.596v-2.546c0-1.253 0.823-1.528 1.41-1.528s3.603 0 3.603 0v-5.483l-4.935-0.039c-5.523 0-6.776 4.073-6.776 6.698v2.898h-3.173v6.424h3.212c0 7.246 0 15.98 0 15.98h6.423c0 0 0-8.852 0-15.98h4.778l0.235-2.507 0.352-3.878h-5.131v-0.039z"></path>
</symbol>
<symbol id="icon-chek" viewBox="0 0 32 32">
<path fill="#f5f5f5" style="fill: var(--color1, #f5f5f5)" d="M0 0h32v32h-32v-32z"></path>
<path fill="#f5f5f5" style="fill: var(--color1, #f5f5f5)" d="M-370.909-631.273h2443.636v1710.545h-2443.636v-1710.545z"></path>
<path fill="#fff" style="fill: var(--color2, #fff)" d="M-370.909-484.364h2443.636v896h-2443.636v-896z"></path>
<path fill="#f2f2f2" style="fill: var(--color3, #f2f2f2); stroke: var(--color4, #d9d9d9)" stroke="#d9d9d9" stroke-linejoin="miter" stroke-linecap="butt" stroke-miterlimit="4" stroke-width="1.4545" d="M4.364 0.727h23.273c2.008 0 3.636 1.628 3.636 3.636v23.273c0 2.008-1.628 3.636-3.636 3.636h-23.273c-2.008 0-3.636-1.628-3.636-3.636v-23.273c0-2.008 1.628-3.636 3.636-3.636z"></path>
</symbol>
<symbol id="icon-pencil" viewBox="0 0 32 32">
<path stroke-linejoin="round" stroke-linecap="round" stroke-miterlimit="10" stroke-width="2.6667" d="M26.555 1.333l-22.054 21.925 4.112 4.088 22.054-21.925-4.112-4.088z"></path>
<path stroke-linejoin="round" stroke-linecap="round" stroke-miterlimit="10" stroke-width="2.6667" d="M4.241 23.703l-2.907 6.963 7.004-2.891"></path>
</symbol>
<symbol id="icon-phone" viewBox="0 0 40 32">
<path stroke-linejoin="round" stroke-linecap="round" stroke-miterlimit="10" stroke-width="2.6667" d="M6.252 1.333l-4.403 3.869c-2.001 2.001 2.001 9.072 8.805 16.010 6.938 6.938 14.142 10.94 16.143 8.939l3.869-4.403-6.671-5.737-5.337 2.668-9.339-9.339 2.668-5.337-5.737-6.671z"></path>
<path stroke-linejoin="round" stroke-linecap="round" stroke-miterlimit="10" stroke-width="2.6667" d="M26.664 13.341c0-4.403-3.602-8.005-8.005-8.005"></path>
<path stroke-linejoin="round" stroke-linecap="round" stroke-miterlimit="10" stroke-width="2.6667" d="M30.666 12.007c0-5.87-4.803-10.673-10.673-10.673"></path>
</symbol>
<symbol id="icon-star" viewBox="0 0 35 32">
<path stroke-linejoin="round" stroke-linecap="round" stroke-miterlimit="10" stroke-width="3.2" d="M18.38 24.509c-0.39-0.262-1.17-0.262-1.69 0l-8.322 5.76c-0.39 0.262-0.65 0.131-0.52-0.392l2.471-8.902c0.13-0.524-0-1.309-0.39-1.702l-6.502-6.676c-0.39-0.393-0.26-0.786 0.26-0.786l8.582-0.785c0.52 0 1.17-0.524 1.43-1.048l3.511-7.986c0.26-0.524 0.52-0.524 0.78 0l3.511 7.986c0.26 0.524 0.78 0.917 1.43 1.048l8.582 0.785c0.52 0 0.65 0.393 0.26 0.786l-6.501 6.676c-0.39 0.393-0.52 1.178-0.39 1.702l2.47 8.902c0.13 0.524-0.13 0.654-0.52 0.392l-8.452-5.76z"></path>
</symbol>
<symbol id="icon-telegram" viewBox="0 0 36 32">
<path fill="#fff" style="fill: var(--color1, #fff)" d="M35.444 0.822c-0.44-0.53-1.098-0.822-1.855-0.822-0.411 0-0.847 0.085-1.295 0.254l-30.473 11.472c-1.617 0.609-1.835 1.522-1.821 2.012s0.284 1.39 1.934 1.908c0.010 0.003 0.020 0.006 0.030 0.009l6.321 1.784 3.418 9.64c0.466 1.314 1.512 2.131 2.731 2.131 0.768 0 1.524-0.317 2.185-0.918l3.91-3.55 5.671 4.503c0.001 0.001 0.001 0.001 0.002 0.001l0.054 0.043c0.005 0.004 0.010 0.008 0.015 0.012 0.63 0.482 1.318 0.737 1.99 0.737h0c1.313 0 2.359-0.959 2.663-2.442l4.993-24.313c0.2-0.976 0.032-1.849-0.474-2.459zM10.399 17.099l12.195-6.144-7.593 7.957c-0.124 0.13-0.213 0.29-0.256 0.463l-1.464 5.849-2.881-8.125zM15.19 26.76c-0.051 0.046-0.101 0.087-0.152 0.124l1.358-5.426 2.471 1.962-3.677 3.339zM33.85 2.868l-4.993 24.313c-0.048 0.233-0.202 0.774-0.596 0.774-0.195 0-0.44-0.105-0.691-0.295l-6.426-5.102c-0.001-0.001-0.002-0.002-0.003-0.002l-3.823-3.036 10.981-11.507c0.352-0.368 0.383-0.933 0.076-1.337s-0.867-0.532-1.323-0.302l-18.061 9.099-6.407-1.808 30.464-11.468c0.257-0.097 0.437-0.117 0.542-0.117 0.064 0 0.179 0.008 0.222 0.059 0.056 0.067 0.127 0.297 0.039 0.729z"></path>
</symbol>
<symbol id="icon-trash" viewBox="0 0 32 32">
<path fill="none" stroke="#dc3545" style="stroke: var(--color2, #dc3545)" stroke-linejoin="round" stroke-linecap="round" stroke-miterlimit="10" stroke-width="2.6667" d="M25.333 6.667v22.5c0 0.75-0.778 1.5-1.556 1.5h-15.556c-0.778 0-1.556-0.75-1.556-1.5v-22.5"></path>
<path fill="none" stroke="#dc3545" style="stroke: var(--color2, #dc3545)" stroke-linejoin="round" stroke-linecap="round" stroke-miterlimit="10" stroke-width="2.6667" d="M4 6.667h24"></path>
<path fill="none" stroke="#dc3545" style="stroke: var(--color2, #dc3545)" stroke-linejoin="round" stroke-linecap="round" stroke-miterlimit="10" stroke-width="2.6667" d="M12 25.333v-13.333"></path>
<path fill="none" stroke="#dc3545" style="stroke: var(--color2, #dc3545)" stroke-linejoin="round" stroke-linecap="round" stroke-miterlimit="10" stroke-width="2.6667" d="M16 25.333v-13.333"></path>
<path fill="none" stroke="#dc3545" style="stroke: var(--color2, #dc3545)" stroke-linejoin="round" stroke-linecap="round" stroke-miterlimit="10" stroke-width="2.6667" d="M20 25.333v-13.333"></path>
<path fill="none" stroke="#dc3545" style="stroke: var(--color2, #dc3545)" stroke-linejoin="round" stroke-linecap="round" stroke-miterlimit="10" stroke-width="2.6667" d="M10.667 6.667v-2.667c0-1.467 1.6-2.667 3.556-2.667h3.555c1.956 0 3.556 1.2 3.556 2.667v2.667"></path>
</symbol>
<symbol id="icon-viber" viewBox="0 0 32 32">
<path fill="#fff" style="fill: var(--color1, #fff)" d="M28.391 3.116c-0.838-0.73-4.224-3.062-11.777-3.092 0 0-8.904-0.508-13.241 3.268-2.41 2.286-3.262 5.643-3.354 9.799s-0.204 11.943 7.71 14.053h0.008l-0.008 3.226c0 0-0.052 1.306 0.858 1.568 1.094 0.324 1.74-0.668 2.786-1.738 0.574-0.586 1.366-1.45 1.964-2.106 5.418 0.432 9.576-0.556 10.050-0.698 1.094-0.338 7.282-1.088 8.284-8.875 1.040-8.037-0.502-13.111-3.282-15.405zM29.307 17.933c-0.85 6.498-5.866 6.913-6.788 7.193-0.396 0.12-4.052 0.982-8.646 0.7 0 0-3.426 3.918-4.494 4.936-0.35 0.332-0.732 0.302-0.724-0.356 0-0.43 0.026-5.354 0.026-5.354-0.006 0-0.006 0 0 0-6.708-1.762-6.314-8.393-6.24-11.861 0.072-3.468 0.764-6.313 2.806-8.225 3.67-3.156 11.231-2.686 11.231-2.686 6.384 0.024 9.442 1.848 10.154 2.462 2.352 1.91 3.552 6.487 2.676 13.191zM20.147 12.885c0.026 0.536-0.824 0.574-0.85 0.036-0.072-1.374-0.752-2.042-2.148-2.118-0.568-0.032-0.514-0.838 0.046-0.806 1.838 0.094 2.86 1.094 2.952 2.888zM21.485 13.591c0.066-2.65-1.68-4.726-4.996-4.956-0.56-0.038-0.5-0.844 0.060-0.806 3.822 0.262 5.858 2.756 5.786 5.781-0.006 0.538-0.864 0.514-0.85-0.018zM24.581 14.427c0.008 0.538-0.85 0.544-0.85 0.006-0.038-5.092-3.616-7.867-7.96-7.899-0.56-0.006-0.56-0.806 0-0.806 4.856 0.032 8.764 3.212 8.81 8.699zM23.837 20.558v0.014c-0.712 1.186-2.042 2.5-3.414 2.080l-0.012-0.018c-1.39-0.37-4.666-1.968-6.736-3.53-1.066-0.8-2.042-1.744-2.794-2.65-0.678-0.806-1.364-1.764-2.028-2.914-1.404-2.404-1.714-3.478-1.714-3.478-0.442-1.302 0.936-2.562 2.194-3.238h0.014c0.606-0.3 1.186-0.2 1.574 0.244 0 0 0.818 0.924 1.166 1.38 0.33 0.426 0.772 1.106 1.002 1.488 0.402 0.68 0.152 1.374-0.244 1.662l-0.79 0.6c-0.402 0.306-0.35 0.874-0.35 0.874s1.174 4.206 5.556 5.269c0 0 0.6 0.050 0.922-0.33l0.632-0.752c0.304-0.374 1.036-0.612 1.754-0.23 0.968 0.518 2.2 1.324 3.018 2.056 0.462 0.356 0.566 0.9 0.25 1.474z"></path>
</symbol>
<symbol id="icon-watsup" viewBox="0 0 32 32">
<path fill="#fff" style="fill: var(--color1, #fff)" d="M32 15.121c-0.22-8.396-7.165-15.121-15.692-15.121-8.44 0-15.341 6.593-15.692 14.857 0 0.22 0 0.44 0 0.703 0 2.945 0.835 5.67 2.242 8l-2.857 8.308 8.703-2.769c2.242 1.231 4.835 1.934 7.604 1.934 8.659 0 15.692-6.945 15.692-15.516 0-0.132 0-0.264 0-0.396zM16.308 28.571c-2.681 0-5.187-0.791-7.253-2.154l-5.099 1.626 1.67-4.835c-1.626-2.198-2.549-4.835-2.549-7.692 0-0.44 0.044-0.835 0.044-1.275 0.659-6.593 6.286-11.78 13.143-11.78 6.945 0 12.659 5.319 13.187 12.044 0.044 0.352 0.044 0.659 0.044 1.011 0 7.209-5.934 13.055-13.187 13.055z"></path>
<path fill="#fff" style="fill: var(--color1, #fff)" d="M23.473 18.681c-0.396-0.176-2.286-1.099-2.637-1.231s-0.615-0.176-0.879 0.176c-0.264 0.396-1.011 1.231-1.231 1.494s-0.439 0.308-0.835 0.088c-0.396-0.176-1.626-0.571-3.077-1.89-1.143-1.011-1.934-2.242-2.154-2.637s-0.044-0.571 0.176-0.791c0.176-0.176 0.396-0.44 0.571-0.659 0.044-0.044 0.088-0.132 0.132-0.176 0.088-0.132 0.176-0.264 0.264-0.44 0.132-0.264 0.044-0.484-0.044-0.659s-0.879-2.066-1.187-2.813c-0.308-0.747-0.659-0.615-0.879-0.615s-0.484-0.044-0.747-0.044c-0.264 0-0.659 0.088-1.011 0.484s-1.363 1.319-1.363 3.165c0 0.44 0.088 0.879 0.176 1.319 0.396 1.363 1.231 2.462 1.363 2.637 0.176 0.264 2.681 4.22 6.593 5.758s3.912 1.011 4.615 0.967c0.703-0.044 2.286-0.923 2.593-1.802s0.308-1.67 0.22-1.802c0-0.264-0.264-0.352-0.659-0.527z"></path>
</symbol>
</defs>
</svg>
